<svg width="32" height="32" viewBox="0 0 32 32" xmlns="http://www.w3.org/2000/svg">
  <rect width="32" height="32" rx="7" fill="#0c1427"></rect>
  <path d="M 5 24 Q 16 0 27 24" fill="none" stroke="#fff" stroke-width="1.4" stroke-dasharray="1.5 2.5" stroke-linecap="round"></path>
  <circle cx="5" cy="24" r="1.8" fill="#fff"></circle>
  <circle cx="27" cy="24" r="1.8" fill="#fff"></circle>
  <g transform="translate(16 6.5)" fill="#6366f1">
    <path d="M0 -4 Q -0.7 -2.6 -0.7 -1 L -0.7 1.2 L -3.4 3.4 L -3.4 4.2 L -0.7 3.4 L -0.7 4.6 L -2.2 6.8 L -2.2 7.2 L 0 6.4 L 2.2 7.2 L 2.2 6.8 L 0.7 4.6 L 0.7 3.4 L 3.4 4.2 L 3.4 3.4 L 0.7 1.2 L 0.7 -1 Q 0.7 -2.6 0 -4 Z"></path>
  </g>
</svg>