<svg width="280" height="80" viewBox="0 0 280 80" xmlns="http://www.w3.org/2000/svg" role="img" aria-label="Flight Finder">
  <path d="M 12 60 Q 50 -6 88 60" fill="none" stroke="#0c1427" stroke-width="1.6" stroke-dasharray="2 5" stroke-linecap="round"></path>
  <circle cx="12" cy="60" r="3.5" fill="#0c1427"></circle>
  <circle cx="88" cy="60" r="3.5" fill="#0c1427"></circle>
  <g transform="translate(50 16)" fill="#6366f1">
    <path d="M0 -10 Q -1.6 -7 -1.6 -3 L -1.6 3 L -8 8 L -8 10 L -1.6 8 L -1.6 11 L -5 16 L -5 17 L 0 15 L 5 17 L 5 16 L 1.6 11 L 1.6 8 L 8 10 L 8 8 L 1.6 3 L 1.6 -3 Q 1.6 -7 0 -10 Z"></path>
  </g>
  <text x="110" y="52" fill="#0c1427" font-family="Geist, system-ui, sans-serif" font-weight="600" font-size="28" letter-spacing="-0.5">Flight<tspan font-weight="400" fill="#475569"> Finder</tspan></text>
</svg>